<mxfile host="app.diagrams.net" modified="2021-03-22T08:46:45.856Z" agent="5.0 (Macintosh; Intel Mac OS X 11_1_0) AppleWebKit/537.36 (KHTML, like Gecko) Chrome/89.0.4389.90 Safari/537.36" etag="CffrDwfVos_F65tqTCSi" version="14.4.3" type="github">
  <diagram id="gKNL8YIvzpnSoGG2I8BB" name="Page-1">
    <mxGraphModel dx="946" dy="614" grid="1" gridSize="10" guides="1" tooltips="1" connect="1" arrows="1" fold="1" page="1" pageScale="1" pageWidth="827" pageHeight="1169" math="0" shadow="0">
      <root>
        <mxCell id="0" />
        <mxCell id="1" parent="0" />
        <mxCell id="yHcgqVHsc1PdDtMNX3d2-14" style="edgeStyle=orthogonalEdgeStyle;rounded=0;orthogonalLoop=1;jettySize=auto;html=1;exitX=0.5;exitY=1;exitDx=0;exitDy=0;entryX=0.5;entryY=0;entryDx=0;entryDy=0;" edge="1" parent="1" source="yHcgqVHsc1PdDtMNX3d2-6" target="yHcgqVHsc1PdDtMNX3d2-7">
          <mxGeometry relative="1" as="geometry" />
        </mxCell>
        <mxCell id="yHcgqVHsc1PdDtMNX3d2-6" value="读取需要同步的采购单" style="rounded=1;whiteSpace=wrap;html=1;" vertex="1" parent="1">
          <mxGeometry x="341" y="110" width="146" height="60" as="geometry" />
        </mxCell>
        <mxCell id="yHcgqVHsc1PdDtMNX3d2-15" style="edgeStyle=orthogonalEdgeStyle;rounded=0;orthogonalLoop=1;jettySize=auto;html=1;exitX=0.5;exitY=1;exitDx=0;exitDy=0;entryX=0.5;entryY=0;entryDx=0;entryDy=0;" edge="1" parent="1" source="yHcgqVHsc1PdDtMNX3d2-7" target="yHcgqVHsc1PdDtMNX3d2-9">
          <mxGeometry relative="1" as="geometry" />
        </mxCell>
        <mxCell id="yHcgqVHsc1PdDtMNX3d2-7" value="调用DingtalkClient.fetchUserProfile()&lt;br&gt;获取操作人的钉钉部门用户信息" style="rounded=1;whiteSpace=wrap;html=1;" vertex="1" parent="1">
          <mxGeometry x="294" y="220" width="240" height="60" as="geometry" />
        </mxCell>
        <mxCell id="yHcgqVHsc1PdDtMNX3d2-16" style="edgeStyle=orthogonalEdgeStyle;rounded=0;orthogonalLoop=1;jettySize=auto;html=1;exitX=0;exitY=0.5;exitDx=0;exitDy=0;entryX=0.5;entryY=0;entryDx=0;entryDy=0;" edge="1" parent="1" source="yHcgqVHsc1PdDtMNX3d2-9" target="yHcgqVHsc1PdDtMNX3d2-10">
          <mxGeometry relative="1" as="geometry" />
        </mxCell>
        <mxCell id="yHcgqVHsc1PdDtMNX3d2-24" value="是" style="edgeLabel;html=1;align=center;verticalAlign=middle;resizable=0;points=[];" vertex="1" connectable="0" parent="yHcgqVHsc1PdDtMNX3d2-16">
          <mxGeometry x="-0.2308" y="1" relative="1" as="geometry">
            <mxPoint as="offset" />
          </mxGeometry>
        </mxCell>
        <mxCell id="yHcgqVHsc1PdDtMNX3d2-17" style="edgeStyle=orthogonalEdgeStyle;rounded=0;orthogonalLoop=1;jettySize=auto;html=1;exitX=1;exitY=0.5;exitDx=0;exitDy=0;entryX=0.5;entryY=0;entryDx=0;entryDy=0;" edge="1" parent="1" source="yHcgqVHsc1PdDtMNX3d2-9" target="yHcgqVHsc1PdDtMNX3d2-11">
          <mxGeometry relative="1" as="geometry" />
        </mxCell>
        <mxCell id="yHcgqVHsc1PdDtMNX3d2-25" value="否" style="edgeLabel;html=1;align=center;verticalAlign=middle;resizable=0;points=[];" vertex="1" connectable="0" parent="yHcgqVHsc1PdDtMNX3d2-17">
          <mxGeometry x="-0.3436" y="1" relative="1" as="geometry">
            <mxPoint as="offset" />
          </mxGeometry>
        </mxCell>
        <mxCell id="yHcgqVHsc1PdDtMNX3d2-9" value="是否需要用章" style="rhombus;whiteSpace=wrap;html=1;" vertex="1" parent="1">
          <mxGeometry x="359" y="320" width="110" height="80" as="geometry" />
        </mxCell>
        <mxCell id="yHcgqVHsc1PdDtMNX3d2-18" style="edgeStyle=orthogonalEdgeStyle;rounded=0;orthogonalLoop=1;jettySize=auto;html=1;exitX=0.5;exitY=1;exitDx=0;exitDy=0;entryX=0.5;entryY=0;entryDx=0;entryDy=0;" edge="1" parent="1" source="yHcgqVHsc1PdDtMNX3d2-10" target="yHcgqVHsc1PdDtMNX3d2-12">
          <mxGeometry relative="1" as="geometry" />
        </mxCell>
        <mxCell id="yHcgqVHsc1PdDtMNX3d2-10" value="使用 &quot;喵要用章&quot; 流程的process_code" style="rounded=1;whiteSpace=wrap;html=1;" vertex="1" parent="1">
          <mxGeometry x="200" y="430" width="120" height="60" as="geometry" />
        </mxCell>
        <mxCell id="yHcgqVHsc1PdDtMNX3d2-20" style="edgeStyle=orthogonalEdgeStyle;rounded=0;orthogonalLoop=1;jettySize=auto;html=1;exitX=0.5;exitY=1;exitDx=0;exitDy=0;entryX=0.5;entryY=0;entryDx=0;entryDy=0;" edge="1" parent="1" source="yHcgqVHsc1PdDtMNX3d2-11" target="yHcgqVHsc1PdDtMNX3d2-12">
          <mxGeometry relative="1" as="geometry" />
        </mxCell>
        <mxCell id="yHcgqVHsc1PdDtMNX3d2-11" value="使用 &quot;无合同类采购申请&quot; 流程的process_code&lt;br&gt;" style="rounded=1;whiteSpace=wrap;html=1;" vertex="1" parent="1">
          <mxGeometry x="534" y="430" width="120" height="60" as="geometry" />
        </mxCell>
        <mxCell id="yHcgqVHsc1PdDtMNX3d2-23" style="edgeStyle=orthogonalEdgeStyle;rounded=0;orthogonalLoop=1;jettySize=auto;html=1;exitX=0.5;exitY=1;exitDx=0;exitDy=0;entryX=0.5;entryY=0;entryDx=0;entryDy=0;" edge="1" parent="1" source="yHcgqVHsc1PdDtMNX3d2-12" target="yHcgqVHsc1PdDtMNX3d2-13">
          <mxGeometry relative="1" as="geometry" />
        </mxCell>
        <mxCell id="yHcgqVHsc1PdDtMNX3d2-12" value="&lt;span&gt;&amp;nbsp;调用钉钉接口&lt;/span&gt;&lt;br&gt;&lt;span&gt;https://oapi.dingtalk.com/topapi/processinstance/create&lt;/span&gt;" style="rounded=1;whiteSpace=wrap;html=1;" vertex="1" parent="1">
          <mxGeometry x="354" y="585" width="120" height="60" as="geometry" />
        </mxCell>
        <mxCell id="yHcgqVHsc1PdDtMNX3d2-13" value="返回instance_id,保存到采购单" style="rounded=1;whiteSpace=wrap;html=1;" vertex="1" parent="1">
          <mxGeometry x="354" y="710" width="120" height="60" as="geometry" />
        </mxCell>
      </root>
    </mxGraphModel>
  </diagram>
</mxfile>
